
Malù e l'amante/ Amante: The Lover/ Loves of Lady Chatterly 1991


Poster 
http://stpicz.com/5821_2_2w25.png

 
http://www.imdb.com/title/tt0096797/

Imdb Rating 3.9

Director: Pasquale Fanetti

Writers: Marisa Calia, Pasquale Fanetti

Cast: Malù, Anthony Steffen, Kieran Canter

Release Date: May 1991 (Turkey)

Country: Italy

Language: English
Complete name                    : Loves of Lady Chatterly.mp4
Format                           : MPEG-4
Format profile                   : Base Media
Codec ID                         : isom
File size                        : 358 MiB
Duration                         : 1h 20mn
Overall bit rate                 : 619 Kbps

Video
ID                               : 1
Format                           : MPEG-4 Visual
Format profile                   : Simple@L1
Format settings, BVOP            : No
Format settings, QPel            : No
Format settings, GMC             : No warppoints
Format settings, Matrix          : Default (H.263)
Codec ID                         : 20
Duration                         : 1h 20mn
Bit rate mode                    : Variable
Bit rate                         : 550 Kbps
Width                            : 604 pixels
Height                           : 240 pixels
Display aspect ratio             : 4:3
Frame rate mode                  : Constant
Frame rate                       : 25.000 fps
Color space                      : YUV
Chroma subsampling               : 4:2:0
Bit depth                        : 8 bits
Scan type                        : Progressive
Compression mode                 : Lossy
Bits/(Pixel*Frame)               : 0.152
Stream size                      : 318 MiB (89%)
Writing library                  : Lavc52.37.0

Audio
ID                               : 2
Format                           : AAC
Format/Info                      : Advanced Audio Codec
Format profile                   : LC
Codec ID                         : 40
Duration                         : 1h 20mn
Bit rate mode                    : Variable
Bit rate                         : 64.2 Kbps
Channel(s)                       : 2 channels
Channel positions                : Front: L R
Sampling rate                    : 48.0 KHz
Compression mode                 : Lossy
Stream size                      : 37.1 MiB (10%)

Thumbnails
 
http://stpicz.com/9007_loves_of_lady_chatterly.avi_thumbs__2013.02.22_13.44.25_l1iz.jpg